<svg width="213.09964574317195" height="241.62031249999998" viewBox="0 0 312.5 354.3241350445527" class="css-1j8o68f"><defs id="SvgjsDefs2940"/><g id="SvgjsG2941" featurekey="rootContainer" transform="matrix(6.3004014813942035,0,0,6.3004014813942035,0.000046358657472104394,0.02629501308574099)" fill="#ffffff"><path xmlns="http://www.w3.org/2000/svg" d="M23.11 55.78L1.69 43.41A3.39 3.39 0 0 1 0 40.48V15.75a3.39 3.39 0 0 1 1.69-2.94L23.11.45a3.39 3.39 0 0 1 3.39 0l21.41 12.37a3.39 3.39 0 0 1 1.69 2.94v24.72a3.39 3.39 0 0 1-1.69 2.94L26.5 55.78a3.39 3.39 0 0 1-3.39 0z"/></g><g id="SvgjsG2942" featurekey="symbolFeature-0" transform="matrix(1.3329557005181942,0,0,1.3329557005181942,116,114.96134422620952)" fill="#92032e"><title xmlns="http://www.w3.org/2000/svg">29 - Compose (Solid)</title><desc xmlns="http://www.w3.org/2000/svg">Created with Sketch.</desc><g xmlns="http://www.w3.org/2000/svg" xmlns:sketch="http://www.bohemiancoding.com/sketch/ns" stroke="none" stroke-width="1" fill="none" fill-rule="evenodd" sketch:type="MSPage"><g sketch:type="MSLayerGroup" fill="#92032e"><path d="M59.144,3.724 L56.294,0.873 C55.167,-0.252 53.201,-0.253 52.073,0.874 L48.947,4 L0,4 L0,60 L56,60 L56,11.089 L59.144,7.946 C60.308,6.781 60.308,4.888 59.144,3.724 L59.144,3.724 Z M20.047,36.752 L23.267,39.971 L18.839,41.179 L20.047,36.752 L20.047,36.752 Z M52.062,12.199 L47.82,7.956 L49.234,6.542 L53.477,10.784 L52.062,12.199 L52.062,12.199 Z M50.648,13.613 L25.192,39.068 L20.95,34.826 L46.406,9.37 L50.648,13.613 L50.648,13.613 Z M57.73,6.531 L54.891,9.37 L50.648,5.127 L53.487,2.288 C53.858,1.917 54.508,1.917 54.88,2.288 L57.73,5.138 C58.114,5.522 58.114,6.147 57.73,6.531 L57.73,6.531 Z" sketch:type="MSShapeGroup"/></g></g></g><g id="SvgjsG2943" featurekey="nameFeature-0" transform="matrix(0.8443891304741359,0,0,0.8443891304741359,53.587495806947516,205.35040035880354)" fill="#92032e"><path d="M2.8571 35.7143 l0 -24.286 l7.4286 0 l0 22.286 l15.429 0 l0 6.2857 l-18.571 0 z M51.714 11.428999999999998 l4.2857 4.2857 l0 20 l-4.2857 4.2857 l-16.571 0 l-4.2857 -4.2857 l0 -20 l4.2857 -4.2857 l16.571 0 z M48.571 33.7143 l0 -16 l-10.286 0 l0 16 l10.286 0 z M79.14328571428571 17.714 l-9.1429 0 l0 16 l9.1429 0 l2.2857 -2.2857 l5.4286 0 l0 4.2857 l-4.2857 4.2857 l-15.714 0 l-4.2857 -4.2857 l0 -20 l4.2857 -4.2857 l15.714 0 l4.2857 4.2857 l0 4.2857 l-5.4286 0 z M93.42852857142857 40 l0 -24.286 l4.2857 -4.2857 l16.571 0 l4.2857 4.2857 l0 24.286 l-7.4286 0 l0 -8 l-10.286 0 l0 8 l-7.4286 0 z M100.85742857142857 25.714 l10.286 0 l0 -8 l-10.286 0 l0 8 z M142.85671428571428 11.428999999999998 l7.4286 0 l0 28.571 l-6.5714 0 l-11.143 -16 l0 16 l-7.4286 0 l0 -28.571 l6.5714 0 l11.143 15.886 l0 -15.886 z M177.714 11.428999999999998 l4.2857 4.2857 l0 20 l-4.2857 4.2857 l-16.571 0 l-4.2857 -4.2857 l0 -20 l4.2857 -4.2857 l16.571 0 z M174.571 33.7143 l0 -16 l-10.286 0 l0 16 l10.286 0 z M186.5714257142857 17.714 l0 -6.2857 l24.286 0 l0 6.2857 l-8.4571 0 l0 22.286 l-7.4286 0 l0 -22.286 l-8.4 0 z M239.71442857142858 17.714 l-16.857 0 l0 4.8571 l14.571 0 l0 6.2857 l-14.571 0 l0 4.8571 l16.857 0 l0 6.2857 l-20 0 l-4.2857 -4.2857 l0 -24.286 l24.286 0 l0 6.2857 z"/></g></svg>